<svg xmlns="http://www.w3.org/2000/svg" viewBox="0 0 24 24" id="cv"><defs><linearGradient id="a" x1="3.76" x2="20.24" y1="20.24" y2="3.76" gradientUnits="userSpaceOnUse"><stop offset="0" stop-color="#6d03a8"></stop><stop offset="1" stop-color="#fd60c4"></stop></linearGradient></defs><g><path fill="url(#a)" d="M11,7.75a1,1,0,1,1,1,1A1,1,0,0,1,11,7.75ZM19.75,4V20A1.76,1.76,0,0,1,18,21.75H6A1.76,1.76,0,0,1,4.25,20V4A1.76,1.76,0,0,1,6,2.25H18A1.76,1.76,0,0,1,19.75,4ZM10.16,9.48A3.11,3.11,0,0,0,8.87,12a.75.75,0,0,0,1.5,0,1.63,1.63,0,0,1,3.26,0,.75.75,0,0,0,1.5,0,3.11,3.11,0,0,0-1.29-2.52,2.5,2.5,0,0,0,.7-1.73,2.54,2.54,0,1,0-5.08,0A2.5,2.5,0,0,0,10.16,9.48ZM15.75,18a.76.76,0,0,0-.75-.75H9a.75.75,0,0,0,0,1.5h6A.76.76,0,0,0,15.75,18Zm0-3a.76.76,0,0,0-.75-.75H9a.75.75,0,0,0,0,1.5h6A.76.76,0,0,0,15.75,15Z"></path></g></svg>